<svg width="30" height="30" viewBox="0 0 30 30" fill="none" xmlns="http://www.w3.org/2000/svg">
<path fill-rule="evenodd" clip-rule="evenodd" d="M5.94002 15.5102C5.65912 15.2193 5.50134 14.8249 5.50134 14.4137C5.50134 14.0025 5.65912 13.6081 5.94002 13.3171L11.596 7.46403C11.8774 7.17307 12.259 7.00967 12.6569 7.00977C12.8539 7.00981 13.0489 7.05 13.2309 7.12803C13.4129 7.20607 13.5783 7.32041 13.7175 7.46455C13.8568 7.60869 13.9672 7.77979 14.0426 7.96809C14.1179 8.15639 14.1567 8.35819 14.1567 8.56199C14.1566 8.76578 14.1178 8.96757 14.0423 9.15583C13.9669 9.34409 13.8564 9.51514 13.717 9.65921L9.12102 14.4137L13.717 19.1682C13.8604 19.3112 13.9747 19.4824 14.0534 19.6717C14.1321 19.861 14.1736 20.0646 14.1754 20.2706C14.1772 20.4766 14.1394 20.681 14.064 20.8717C13.9887 21.0625 13.8774 21.2358 13.7366 21.3815C13.5958 21.5273 13.4284 21.6426 13.2441 21.7207C13.0598 21.7988 12.8623 21.8382 12.6631 21.8365C12.464 21.8348 12.2671 21.7921 12.0841 21.7108C11.901 21.6296 11.7355 21.5115 11.597 21.3633L5.93802 15.5102H5.94002Z" fill="#ABC4FF"/>
<path fill-rule="evenodd" clip-rule="evenodd" d="M14.94 15.5102C14.6591 15.2193 14.5013 14.8249 14.5013 14.4137C14.5013 14.0025 14.6591 13.6081 14.94 13.3171L20.596 7.46403C20.8774 7.17307 21.259 7.00967 21.6569 7.00977C21.8539 7.00981 22.0489 7.05 22.2309 7.12803C22.4129 7.20607 22.5783 7.32041 22.7175 7.46455C22.8568 7.60869 22.9672 7.77979 23.0426 7.96809C23.1179 8.15639 23.1567 8.35819 23.1567 8.56199C23.1566 8.76578 23.1178 8.96757 23.0423 9.15583C22.9669 9.34409 22.8564 9.51514 22.717 9.65921L18.121 14.4137L22.717 19.1682C22.8604 19.3112 22.9747 19.4824 23.0534 19.6717C23.1321 19.861 23.1736 20.0646 23.1754 20.2706C23.1772 20.4766 23.1394 20.681 23.064 20.8717C22.9887 21.0625 22.8774 21.2358 22.7366 21.3815C22.5958 21.5273 22.4284 21.6426 22.2441 21.7207C22.0598 21.7988 21.8623 21.8382 21.6631 21.8365C21.464 21.8348 21.2671 21.7921 21.0841 21.7108C20.901 21.6296 20.7355 21.5115 20.597 21.3633L14.938 15.5102H14.94Z" fill="#ABC4FF"/>
</svg>
